<?xml version="1.0" encoding="UTF-8" standalone="no"?>
<svg version="1.1" x="0px" y="0px" width="36" height="36" viewBox="0 0 36 36" enable-background="new 0 0 96 96"
	xml:space="preserve" id="svg224" sodipodi:docname="ic_my_loacation_dot_blue_36px.svg"
	inkscape:version="1.1-dev (9017afb, 2021-01-01)" inkscape:label="Layer1" xmlns:inkscape="http://www.inkscape.org/namespaces/inkscape"
	xmlns:sodipodi="http://sodipodi.sourceforge.net/DTD/sodipodi-0.dtd" xmlns="http://www.w3.org/2000/svg"><defs
   id="defs228" /><sodipodi:namedview
   id="namedview226"
   pagecolor="#ffffff"
   bordercolor="#666666"
   borderopacity="1.0"
   objecttolerance="10.0"
   gridtolerance="10.0"
   guidetolerance="10.0"
   inkscape:pageshadow="2"
   inkscape:pageopacity="0.0"
   inkscape:pagecheckerboard="0"
   showgrid="false"
   units="px"
   inkscape:zoom="9.09375"
   inkscape:cx="14.295533"
   inkscape:cy="28.591065"
   inkscape:window-width="2033"
   inkscape:window-height="1126"
   inkscape:window-x="450"
   inkscape:window-y="25"
   inkscape:window-maximized="0"
   inkscape:current-layer="svg224"
   inkscape:document-units="pt" />

<g
   id="My_Location_Dot"
   inkscape:label="Location Dot"
   style="display:inline"
   transform="translate(6,6)">
	<circle
   opacity="0.33"
   fill="#2095f2"
   cx="12"
   cy="12"
   id="circle217"
   style="display:none;fill:#3c98db;fill-opacity:1;stroke-width:0.25"
   r="12"
   inkscape:label="Frame 24 px" />
	<circle
   fill="#2095f2"
   cx="12"
   cy="12"
   id="circle220"
   style="fill:#3c98db;fill-opacity:1;stroke-width:0.25"
   r="6"
   inkscape:label="Core 12 px" />
</g>
<path
   d="M 18,22.3275 22.635,25.125 21.405,19.8525 25.5,16.305 20.1075,15.8475 18,10.875 15.8925,15.8475 10.5,16.305 l 4.095,3.5475 -1.23,5.2725 z"
   id="path4-3"
   style="display:none;fill:#3c98db;fill-opacity:1;stroke-width:0.75"
   inkscape:label="Location Star 24 px"
   sodipodi:insensitive="true" />
<path
   d="M 25.5,16.305 20.1075,15.84 18,10.875 15.8925,15.8475 10.5,16.305 14.595,19.8525 13.365,25.125 18,22.3275 22.635,25.125 21.4125,19.8525 Z m -7.5,4.62 -2.82,1.7025 0.75,-3.21 -2.49,-2.16 3.285,-0.285 L 18,13.95 l 1.2825,3.03 3.285,0.285 -2.49,2.16 0.75,3.21 z"
   id="path831"
   style="display:none;fill:#3c98db;fill-opacity:1;stroke-width:0.5625"
   inkscape:label="Location Star Outline 24 px"
   sodipodi:insensitive="true" /><path
   d="M 18,0 C 14.517,0 11.7,2.817 11.7,6.3 11.7,11.025 18,18 18,18 18,18 24.3,11.025 24.3,6.3 24.3,2.817 21.483,0 18,0 Z m 0,8.55 c -1.242001,0 -2.25,-1.008 -2.25,-2.25 0,-1.242 1.008,-2.25 2.25,-2.25 1.242,0 2.25,1.008 2.25,2.25 0,1.242 -1.008,2.25 -2.25,2.25 z"
   id="path28"
   style="display:inline;fill:#dc3d33;fill-opacity:1;stroke-width:0.9"
   inkscape:label="Pin" /></svg>
