<?xml version="1.0" encoding="UTF-8" standalone="no"?>
<svg version="1.1" x="0px" y="0px" width="24" height="24" viewBox="0 0 24 24" enable-background="new 0 0 96 96"
    xml:space="preserve" id="svg224" sodipodi:docname="ic_my_loacation_dot_blue_24dp.svg"
    inkscape:version="1.1-dev (9017afb, 2021-01-01)" inkscape:label="Layer1" xmlns:inkscape="http://www.inkscape.org/namespaces/inkscape"
    xmlns:sodipodi="http://sodipodi.sourceforge.net/DTD/sodipodi-0.dtd" xmlns="http://www.w3.org/2000/svg"><defs
   id="defs228" /><sodipodi:namedview
   id="namedview226"
   pagecolor="#ffffff"
   bordercolor="#666666"
   borderopacity="1.0"
   objecttolerance="10.0"
   gridtolerance="10.0"
   guidetolerance="10.0"
   inkscape:pageshadow="2"
   inkscape:pageopacity="0.0"
   inkscape:pagecheckerboard="0"
   showgrid="false"
   units="px"
   inkscape:zoom="9.09375"
   inkscape:cx="14.515464"
   inkscape:cy="43.106529"
   inkscape:window-width="2033"
   inkscape:window-height="1126"
   inkscape:window-x="450"
   inkscape:window-y="25"
   inkscape:window-maximized="0"
   inkscape:current-layer="svg224"
   inkscape:document-units="pt" />

<g
   id="My_Location_Dot"
   inkscape:label="Location Dot"
   style="display:none">
	<circle
   opacity="0.33"
   fill="#2095f2"
   cx="12"
   cy="12"
   id="circle217"
   style="fill:#3c98db;fill-opacity:1;stroke-width:0.25"
   r="12"
   inkscape:label="Frame 24 px" />
	<circle
   fill="#2095f2"
   cx="12"
   cy="12"
   id="circle220"
   style="fill:#3c98db;fill-opacity:1;stroke-width:0.25"
   r="6"
   inkscape:label="Core 12 px" />
</g>
<path
   d="M 12,16.3275 16.635,19.125 15.405,13.8525 19.5,10.305 14.1075,9.8475 12,4.875 9.8925,9.8475 4.5,10.305 8.595,13.8525 7.365,19.125 Z"
   id="path4-3"
   style="display:inline;fill:#3c98db;fill-opacity:1;stroke-width:0.75"
   inkscape:label="Location Star 24 px"
   sodipodi:insensitive="true" />
<path
   d="M 19.5,10.305 14.1075,9.84 12,4.875 9.8925,9.8475 4.5,10.305 8.595,13.8525 7.365,19.125 12,16.3275 16.635,19.125 15.4125,13.8525 Z m -7.5,4.62 -2.82,1.7025 0.75,-3.21 -2.49,-2.16 3.285,-0.285 L 12,7.95 l 1.2825,3.03 3.285,0.285 -2.49,2.16 0.75,3.21 z"
   id="path831"
   style="display:none;fill:#3c98db;fill-opacity:1;stroke-width:0.5625"
   inkscape:label="Location Star Outline 24 px"
   sodipodi:insensitive="true" /></svg>
