<?xml version="1.0" encoding="UTF-8" standalone="no"?>
<!-- Created with Inkscape (http://www.inkscape.org/) -->

<svg
   xmlns:dc="http://purl.org/dc/elements/1.1/"
   xmlns:cc="http://creativecommons.org/ns#"
   xmlns:rdf="http://www.w3.org/1999/02/22-rdf-syntax-ns#"
   xmlns="http://www.w3.org/2000/svg"
   xmlns:xlink="http://www.w3.org/1999/xlink"
   xmlns:sodipodi="http://sodipodi.sourceforge.net/DTD/sodipodi-0.dtd"
   xmlns:inkscape="http://www.inkscape.org/namespaces/inkscape"
   version="1.1"
   id="svg2"
   xml:space="preserve"
   width="192pt"
   height="192pt"
   viewBox="0 0 256.00001 256.00001"
   sodipodi:docname="trackbook-app-icon-current.svg"
   inkscape:version="0.92.2 5c3e80d, 2017-08-06"
   inkscape:export-filename="/Users/solaris/Desktop/icon-no-bg.png"
   inkscape:export-xdpi="1015.27"
   inkscape:export-ydpi="1015.27"><metadata
     id="metadata8"><rdf:RDF><cc:Work
         rdf:about=""><dc:format>image/svg+xml</dc:format><dc:type
           rdf:resource="http://purl.org/dc/dcmitype/StillImage" /><dc:title /></cc:Work></rdf:RDF></metadata><defs
     id="defs6"><linearGradient
       id="linearGradient4834"
       spreadMethod="pad"
       gradientTransform="matrix(175.93974,101.57886,101.57886,-175.93974,200.76953,191.61621)"
       gradientUnits="userSpaceOnUse"
       y2="0"
       x2="1"
       y1="0"
       x1="0"><stop
         id="stop4824"
         offset="0"
         style="stop-opacity:1;stop-color:#d2d6da" /><stop
         id="stop4826"
         offset="0.10391609"
         style="stop-opacity:1;stop-color:#bdc1c6" /><stop
         id="stop4828"
         offset="0.5"
         style="stop-opacity:1;stop-color:#5f6368" /><stop
         id="stop4830"
         offset="0.88514781"
         style="stop-opacity:1;stop-color:#bdc1c6" /><stop
         id="stop4832"
         offset="1"
         style="stop-opacity:1;stop-color:#d2d6da" /></linearGradient><linearGradient
       id="linearGradient252"
       spreadMethod="pad"
       gradientTransform="matrix(175.93974,101.57886,101.57886,-175.93974,200.76953,191.61621)"
       gradientUnits="userSpaceOnUse"
       y2="0"
       x2="1"
       y1="0"
       x1="0"><stop
         id="stop4813"
         offset="0"
         style="stop-opacity:1;stop-color:#ffffff" /><stop
         id="stop4815"
         offset="0.46555298"
         style="stop-opacity:0.32999161;stop-color:#ffffff" /><stop
         id="stop4817"
         offset="0.490488"
         style="stop-opacity:0.32999161;stop-color:#ffffff" /><stop
         id="stop4819"
         offset="0.84874926"
         style="stop-opacity:1;stop-color:#ffffff" /><stop
         id="stop4821"
         offset="1"
         style="stop-opacity:1;stop-color:#ffffff" /></linearGradient><linearGradient
       id="linearGradient276"
       spreadMethod="pad"
       gradientTransform="matrix(175.93974,101.57886,101.57886,-175.93974,200.76953,191.61621)"
       gradientUnits="userSpaceOnUse"
       y2="0"
       x2="1"
       y1="0"
       x1="0"><stop
         id="stop4800"
         offset="0"
         style="stop-opacity:1;stop-color:#424242" /><stop
         id="stop4802"
         offset="0.46555298"
         style="stop-opacity:1;stop-color:#000000" /><stop
         id="stop4804"
         offset="0.490488"
         style="stop-opacity:1;stop-color:#000000" /><stop
         id="stop4806"
         offset="0.84874926"
         style="stop-opacity:1;stop-color:#ffffff" /><stop
         id="stop4808"
         offset="1"
         style="stop-opacity:1;stop-color:#ffffff" /></linearGradient><clipPath
       clipPathUnits="userSpaceOnUse"
       id="clipPath18"><path
         d="M 0,512 H 512 V 0 H 0 Z"
         id="path16"
         inkscape:connector-curvature="0" /></clipPath><clipPath
       clipPathUnits="userSpaceOnUse"
       id="clipPath82"><path
         d="M 0,512 H 512 V 0 H 0 Z"
         id="path80"
         inkscape:connector-curvature="0" /></clipPath><clipPath
       clipPathUnits="userSpaceOnUse"
       id="clipPath94"><path
         d="M 0,512 H 512 V 0 H 0 Z"
         id="path92"
         inkscape:connector-curvature="0" /></clipPath><clipPath
       clipPathUnits="userSpaceOnUse"
       id="clipPath106"><path
         d="M 256,419.186 H 472.5 V 92.0303 H 256 Z"
         id="path104"
         inkscape:connector-curvature="0" /></clipPath><clipPath
       clipPathUnits="userSpaceOnUse"
       id="clipPath110"><path
         d="m 379.164,92.03 v 0 h 70.243 c 12.753,0 23.093,10.339 23.093,23.095 v 280.968 c 0,12.754 -10.34,23.093 -23.093,23.093 H 379.164 279.093 256 V 396.093 115.125 92.03 Z"
         id="path108"
         inkscape:connector-curvature="0" /></clipPath><linearGradient
       x1="0"
       y1="0"
       x2="1"
       y2="0"
       gradientUnits="userSpaceOnUse"
       gradientTransform="matrix(216.5,0,0,-216.5,256,255.6084)"
       spreadMethod="pad"
       id="linearGradient118"><stop
         style="stop-opacity:1;stop-color:#000000"
         offset="0"
         id="stop112" /><stop
         style="stop-opacity:1;stop-color:#000000"
         offset="0.25"
         id="stop114" /><stop
         style="stop-opacity:1;stop-color:#ffffff"
         offset="1"
         id="stop116" /></linearGradient><clipPath
       clipPathUnits="userSpaceOnUse"
       id="clipPath140"><path
         d="M 0,512 H 512 V 0 H 0 Z"
         id="path138"
         inkscape:connector-curvature="0" /></clipPath><clipPath
       clipPathUnits="userSpaceOnUse"
       id="clipPath152"><path
         d="M 39.5,419.187 H 256 V 92.0303 H 39.5 Z"
         id="path150"
         inkscape:connector-curvature="0" /></clipPath><clipPath
       clipPathUnits="userSpaceOnUse"
       id="clipPath156"><path
         d="m 132.836,419.187 v -0.001 H 62.593 C 49.838,419.186 39.5,408.847 39.5,396.093 V 115.125 C 39.5,102.369 49.838,92.03 62.593,92.03 H 132.836 232.906 256 v 23.095 280.968 23.094 z"
         id="path154"
         inkscape:connector-curvature="0" /></clipPath><linearGradient
       x1="0"
       y1="0"
       x2="1"
       y2="0"
       gradientUnits="userSpaceOnUse"
       gradientTransform="matrix(216.5,0,0,-216.5,39.5,255.6084)"
       spreadMethod="pad"
       id="linearGradient164"><stop
         style="stop-opacity:1;stop-color:#ffffff"
         offset="0"
         id="stop158" /><stop
         style="stop-opacity:1;stop-color:#000000"
         offset="0.75"
         id="stop160" /><stop
         style="stop-opacity:1;stop-color:#000000"
         offset="1"
         id="stop162" /></linearGradient><clipPath
       clipPathUnits="userSpaceOnUse"
       id="clipPath196"><path
         d="M 0,512 H 512 V 0 H 0 Z"
         id="path194"
         inkscape:connector-curvature="0" /></clipPath><clipPath
       clipPathUnits="userSpaceOnUse"
       id="clipPath232"><path
         d="M 256,423.11 H 456.142 V 95.9551 H 256 Z"
         id="path230"
         inkscape:connector-curvature="0" /></clipPath><clipPath
       clipPathUnits="userSpaceOnUse"
       id="clipPath236"><path
         d="m 369.858,116.758 v 0 l 64.936,11.861 c 11.79,2.154 21.348,14.24 21.348,26.995 L 434.192,184.95 256,423.11 V 400.018 119.049 95.955 Z"
         id="path234"
         inkscape:connector-curvature="0" /></clipPath><clipPath
       clipPathUnits="userSpaceOnUse"
       id="clipPath240"><path
         d="M -32768,32767 H 32767 V -32768 H -32768 Z"
         id="path238"
         inkscape:connector-curvature="0" /></clipPath><linearGradient
       x1="0"
       y1="0"
       x2="1"
       y2="0"
       gradientUnits="userSpaceOnUse"
       gradientTransform="matrix(175.93974,101.57886,101.57886,-175.93974,200.76953,191.61621)"
       spreadMethod="pad"
       id="linearGradient252-9"><stop
         style="stop-opacity:1;stop-color:#ffffff"
         offset="0"
         id="stop242" /><stop
         style="stop-opacity:0.32999161;stop-color:#ffffff"
         offset="0.46555298"
         id="stop244" /><stop
         style="stop-opacity:0.32999161;stop-color:#ffffff"
         offset="0.490488"
         id="stop246" /><stop
         style="stop-opacity:1;stop-color:#ffffff"
         offset="0.84874926"
         id="stop248" /><stop
         style="stop-opacity:1;stop-color:#ffffff"
         offset="1"
         id="stop250" /></linearGradient><mask
       maskUnits="userSpaceOnUse"
       x="0"
       y="0"
       width="1"
       height="1"
       id="mask254"><g
         id="g264"><g
           clip-path="url(#clipPath240)"
           id="g262"><g
             id="g260"><g
               id="g258"><path
                 d="M -32768,32767 H 32767 V -32768 H -32768 Z"
                 style="fill:url(#linearGradient252-9);stroke:none"
                 id="path256"
                 inkscape:connector-curvature="0" /></g></g></g></g></mask><linearGradient
       x1="0"
       y1="0"
       x2="1"
       y2="0"
       gradientUnits="userSpaceOnUse"
       gradientTransform="matrix(175.93974,101.57886,101.57886,-175.93974,200.76953,191.61621)"
       spreadMethod="pad"
       id="linearGradient276-1"><stop
         style="stop-opacity:1;stop-color:#bdc1c6"
         offset="0"
         id="stop266" /><stop
         style="stop-opacity:1;stop-color:#d2d6da"
         offset="1"
         id="stop274" /></linearGradient><clipPath
       clipPathUnits="userSpaceOnUse"
       id="clipPath302"><path
         d="M 0,512 H 512 V 0 H 0 Z"
         id="path300"
         inkscape:connector-curvature="0" /></clipPath><clipPath
       clipPathUnits="userSpaceOnUse"
       id="clipPath334"><path
         d="M 55.8579,456.105 H 256 V 95.9551 H 55.8579 Z"
         id="path332"
         inkscape:connector-curvature="0" /></clipPath><clipPath
       clipPathUnits="userSpaceOnUse"
       id="clipPath338"><path
         d="m 142.142,443.913 v -0.001 L 77.207,455.775 C 65.416,457.929 55.858,449.336 55.858,436.582 V 155.614 c 0,-12.755 9.558,-24.841 21.349,-26.995 L 142.142,116.758 234.652,99.857 256,95.955 v 23.094 280.969 23.093 z"
         id="path336"
         inkscape:connector-curvature="0" /></clipPath><linearGradient
       x1="0"
       y1="0"
       x2="1"
       y2="0"
       gradientUnits="userSpaceOnUse"
       gradientTransform="matrix(200.14209,0,0,-200.14209,55.85791,276.03027)"
       spreadMethod="pad"
       id="linearGradient346"><stop
         style="stop-opacity:1;stop-color:#ffffff"
         offset="0"
         id="stop340" /><stop
         style="stop-opacity:1;stop-color:#1a1a1a"
         offset="0.67684186"
         id="stop342" /><stop
         style="stop-opacity:1;stop-color:#1a1a1a"
         offset="1"
         id="stop344" /></linearGradient><clipPath
       clipPathUnits="userSpaceOnUse"
       id="clipPath368"><path
         d="M 0,512 H 512 V 0 H 0 Z"
         id="path366"
         inkscape:connector-curvature="0" /></clipPath><clipPath
       clipPathUnits="userSpaceOnUse"
       id="clipPath376"><path
         d="m 260,442 h 75 V 31 h -75 z"
         id="path374"
         inkscape:connector-curvature="0" /></clipPath><clipPath
       clipPathUnits="userSpaceOnUse"
       id="clipPath380"><path
         d="m 259,443 h 77 V 30 h -77 z"
         id="path378"
         inkscape:connector-curvature="0" /></clipPath><mask
       maskUnits="userSpaceOnUse"
       x="0"
       y="0"
       width="1"
       height="1"
       id="mask382"><g
         id="g400"><g
           clip-path="url(#clipPath376)"
           id="g398"><g
             id="g396"><g
               id="g384" /><g
               id="g394"><g
                 clip-path="url(#clipPath380)"
                 id="g392"><g
                   id="g390"><g
                     transform="matrix(75,0,0,411,260,31)"
                     id="g388"><image
                       sodipodi:absref="/Users/solaris/Desktop/trackbook/assets/app-icon-5_img0.png"
                       xlink:href="app-icon-5_img0.png"
                       id="image386"
                       transform="matrix(1,0,0,-1,0,1)"
                       preserveAspectRatio="none"
                       style="image-rendering:optimizeSpeed"
                       height="1"
                       width="1" /></g></g></g></g></g></g></g></mask><clipPath
       clipPathUnits="userSpaceOnUse"
       id="clipPath408"><path
         d="m 262.198,439.809 h 70.663 V 33 h -70.663 z"
         id="path406"
         inkscape:connector-curvature="0" /></clipPath><clipPath
       clipPathUnits="userSpaceOnUse"
       id="clipPath428"><path
         d="M 0,512 H 512 V 0 H 0 Z"
         id="path426"
         inkscape:connector-curvature="0" /></clipPath><clipPath
       clipPathUnits="userSpaceOnUse"
       id="clipPath436"><path
         d="M -10.9321,471.598 H 522.924 V 40.4072 H -10.9321 Z"
         id="path434"
         inkscape:connector-curvature="0" /></clipPath><clipPath
       clipPathUnits="userSpaceOnUse"
       id="clipPath454"><path
         d="M 0,471.598 H 512 V 40.407 H 0 Z"
         id="path452"
         inkscape:connector-curvature="0" /></clipPath></defs><sodipodi:namedview
     pagecolor="#ffffff"
     bordercolor="#666666"
     borderopacity="1"
     objecttolerance="10"
     gridtolerance="10"
     guidetolerance="10"
     inkscape:pageopacity="0"
     inkscape:pageshadow="2"
     inkscape:window-width="1669"
     inkscape:window-height="1156"
     id="namedview4"
     showgrid="false"
     inkscape:zoom="2"
     inkscape:cx="150.6388"
     inkscape:cy="154.00135"
     inkscape:window-x="103"
     inkscape:window-y="0"
     inkscape:window-maximized="0"
     inkscape:current-layer="g4754"
     units="pt"
     showguides="true"
     inkscape:guide-bbox="true"><sodipodi:guide
       position="44.901283,214.96047"
       orientation="1,0"
       id="guide978"
       inkscape:locked="false" /><sodipodi:guide
       position="211.07138,240.06276"
       orientation="1,0"
       id="guide980"
       inkscape:locked="false" /></sodipodi:namedview><g
     inkscape:groupmode="layer"
     id="layer1"
     inkscape:label="circular background"
     style="display:inline"><circle
       style="opacity:1;fill:#3c98db;fill-opacity:1;stroke-width:1.70499098"
       id="path4837"
       cx="128"
       cy="128"
       r="114"
       inkscape:label="circular background" /></g><g
     id="g10"
     inkscape:groupmode="layer"
     inkscape:label="app icon"
     transform="matrix(1.3333333,0,0,-1.3333333,0,256.00002)"
     style="display:inline"><g
       id="g190"
       inkscape:label="right page"
       style="display:inline"
       transform="matrix(0.27791274,0,0,0.27791274,24.85441,16.661576)"><g
         id="g192"
         clip-path="url(#clipPath196)"
         inkscape:label="right page"><g
           id="g198"
           transform="translate(373.8584,112.7578)"
           style="display:inline"
           inkscape:label="page border right"><path
             d="m 0,0 v 0 l 64.936,11.861 c 11.79,2.155 21.347,14.241 21.347,26.995 v 280.968 c 0,12.754 -9.557,21.347 -21.347,19.193 L 0,327.154 l -92.509,-16.901 -21.349,-3.9 V 283.26 2.291 -20.803 Z"
             style="fill:#5f6368;fill-opacity:1;fill-rule:nonzero;stroke:none"
             id="path200"
             inkscape:connector-curvature="0"
             inkscape:label="page border right" /></g><g
           id="g206"
           transform="translate(434.7939,455.7749)"
           style="display:inline"
           inkscape:label="background right"><path
             d="m 0,0 -64.936,-11.863 -92.508,-16.901 -21.35,-3.901 V -55.757 -336.726 -359.82 L -64.936,-339.017 0,-327.156 c 11.79,2.155 21.348,14.24 21.348,26.995 V -19.193 C 21.348,-6.439 11.79,2.154 0,0"
             style="fill:#d2d6da;fill-opacity:1;fill-rule:nonzero;stroke:none"
             id="path208"
             inkscape:connector-curvature="0"
             inkscape:label="background right" /></g><g
           id="g210"
           transform="translate(261.4482,148.6699)"
           style="display:inline"
           inkscape:label="meaddow right"><path
             d="M 0,0 -5.448,1.597 V -29.621 -52.715 L 89.298,-35.404 25.462,-7.977 Z"
             style="fill:#9ccc65;fill-opacity:1;fill-rule:nonzero;stroke:none"
             id="path212"
             inkscape:connector-curvature="0"
             inkscape:label="meaddow right" /></g><g
           id="g214"
           transform="translate(348.0654,301.25)"
           style="display:inline"
           inkscape:label="house"><path
             d="M 0,0 48.7,5.771 46.365,-33.867 -2.112,-38.513 Z"
             style="fill:#e53935;fill-opacity:1;fill-rule:nonzero;stroke:none"
             id="path216"
             inkscape:connector-curvature="0"
             inkscape:label="house" /></g><g
           id="g218"
           transform="translate(296.3809,369.0981)"
           style="display:inline"
           inkscape:label="small street right"><path
             d="M 0,0 -40.381,-11.812 V -33.219 L 12.81,-16.711 98.737,8.416 159.761,26.475 V 47.6 L 99.092,29.842 Z"
             style="fill:#fefefe;fill-opacity:1;fill-rule:nonzero;stroke:none"
             id="path220"
             inkscape:connector-curvature="0"
             inkscape:label="small street right" /></g><g
           id="g222"
           transform="translate(437.5918,129.335)"
           style="display:inline"
           inkscape:label="street right"><path
             d="m 0,0 c 0.149,0.047 0.302,0.094 0.453,0.144 3.876,1.349 7.409,3.765 10.305,6.87 0.006,0.006 0.012,0.013 0.017,0.018 0.229,0.246 0.451,0.497 0.672,0.75 0.032,0.039 0.071,0.078 0.104,0.118 0.181,0.211 0.355,0.427 0.532,0.644 0.068,0.086 0.14,0.169 0.208,0.255 l -36.795,18.08 -48.389,19.835 -54.086,20.332 -54.613,17.858 V 45.735 l 41.805,-14.512 64.579,-23.229 34.887,-15.564 37.523,6.854 c 0.735,0.136 1.465,0.31 2.182,0.519 C -0.408,-0.137 -0.207,-0.066 0,0"
             style="fill:#ffee58;fill-opacity:1;fill-rule:nonzero;stroke:none"
             id="path224"
             inkscape:connector-curvature="0"
             inkscape:label="street right" /></g><g
           inkscape:label="shaddow right"
           style="display:inline"
           transform="translate(434.7939,455.7749)"
           id="g4754"><path
             inkscape:label="shaddow right"
             inkscape:connector-curvature="0"
             id="path4752"
             style="display:inline;fill:#17181a;fill-opacity:0.0627451;fill-rule:nonzero;stroke:none"
             d="M -178.794,-32.665 V -55.757 -336.726 -359.82 L -64.936,-339.017 0,-327.156 c 11.79,2.155 21.348,14.24 21.348,26.995"
             sodipodi:nodetypes="ccccccc" /></g></g></g><g
       id="g296"
       style="display:inline"
       inkscape:label="left page"
       transform="matrix(0.27791274,0,0,0.27791274,24.85441,16.661576)"><g
         id="g298"
         clip-path="url(#clipPath302)"
         inkscape:label="left page"><g
           id="g304"
           transform="translate(138.1421,439.9126)"
           inkscape:label="page border left"><path
             d="m 0,0 v 0 l -64.936,11.862 c -11.79,2.154 -21.348,-6.439 -21.348,-19.193 v -280.967 c 0,-12.755 9.558,-24.841 21.348,-26.995 L 0,-327.155 l 92.51,-16.9 21.348,-3.903 v 23.094 280.969 23.093 z"
             style="fill:#5f6368;fill-opacity:1;fill-rule:nonzero;stroke:none"
             id="path306"
             inkscape:connector-curvature="0"
             inkscape:label="page border left" /></g><g
           id="g312"
           transform="translate(256,400.0176)"
           style="display:inline"
           inkscape:label="background right"><path
             d="m 0,0 v 23.093 0 l -113.858,20.802 v 0 l -64.935,11.862 c -11.791,2.154 -21.349,-6.439 -21.349,-19.193 v -280.967 c 0,-12.755 9.558,-24.841 21.349,-26.995 l 64.935,-11.862 92.51,-16.9 L 0,-304.062 v 23.093 z"
             style="fill:#d2d6da;fill-opacity:1;fill-rule:nonzero;stroke:none"
             id="path314"
             inkscape:connector-curvature="0"
             inkscape:label="background right" /></g><g
           id="g316"
           transform="translate(256,150.2666)"
           style="display:inline"
           inkscape:label="meaddow left"><path
             d="m 0,0 -59.264,39.026 -20.014,11.354 -47.144,24.371 -24.24,12.727 -49.146,23.051 V 1.236 c 0.442,-2.782 1.319,-5.482 2.547,-7.996 0.003,-0.009 0.007,-0.013 0.011,-0.02 0.303,-0.62 0.628,-1.23 0.973,-1.824 0.008,-0.014 0.017,-0.029 0.025,-0.042 1.039,-1.786 2.26,-3.455 3.629,-4.968 0.025,-0.026 0.048,-0.052 0.072,-0.079 0.432,-0.474 0.882,-0.931 1.342,-1.372 0.05,-0.05 0.101,-0.096 0.151,-0.145 0.456,-0.43 0.923,-0.845 1.404,-1.24 0.051,-0.043 0.104,-0.083 0.155,-0.125 0.495,-0.403 1,-0.787 1.518,-1.15 0.016,-0.01 0.031,-0.02 0.046,-0.031 0.519,-0.361 1.051,-0.7 1.592,-1.021 0.038,-0.021 0.076,-0.047 0.115,-0.07 0.523,-0.306 1.058,-0.589 1.598,-0.854 0.084,-0.039 0.167,-0.081 0.25,-0.121 0.527,-0.25 1.064,-0.482 1.606,-0.691 0.096,-0.037 0.191,-0.071 0.286,-0.107 0.55,-0.204 1.105,-0.391 1.668,-0.551 0.075,-0.021 0.153,-0.039 0.227,-0.062 0.594,-0.161 1.194,-0.303 1.8,-0.414 l 64.935,-11.862 92.51,-16.9 L 0,-54.312 v 23.094 z"
             style="fill:#9ccc65;fill-opacity:1;fill-rule:nonzero;stroke:none"
             id="path318"
             inkscape:connector-curvature="0"
             inkscape:label="meaddow left" /></g><g
           id="g320"
           transform="translate(248.8809,336.2715)"
           inkscape:label="small street left"><path
             d="m 0,0 7.119,-0.392 v 21.407 l -6.942,0.506 -85.215,5.369 -51.059,-12.226 -26.151,-25.628 -2.846,-10.257 18.679,-8.993 1.602,6.13 19.213,18.164 43.23,12.116 z"
             style="fill:#fefefe;fill-opacity:1;fill-rule:nonzero;stroke:none"
             id="path322"
             inkscape:connector-curvature="0"
             inkscape:label="small street left" /></g><g
           id="g324"
           transform="translate(157.085,237.96)"
           style="display:inline"
           inkscape:label="street left"><path
             d="M 0,0 70.627,-42.731 98.915,-62.89 v 39.169 l -0.89,0.617 L 52.126,6.45 10.853,31.117 -55.15,70.119 l -18.145,8.895 -27.932,9.367 V 51.063 l 30.243,-9.612 z"
             style="fill:#ffee58;fill-opacity:1;fill-rule:nonzero;stroke:none"
             id="path326"
             inkscape:connector-curvature="0"
             inkscape:label="street left" /></g><g
           inkscape:label="shaddow left"
           style="display:inline"
           transform="translate(256,400.0176)"
           id="g4758"><path
             inkscape:label="shaddow left"
             inkscape:connector-curvature="0"
             id="path4756"
             style="fill:#17181a;fill-opacity:0.1254902;fill-rule:nonzero;stroke:none"
             d="m 0,0 v 23.093 0 l -113.858,20.802 v 0 l -64.935,11.862 c -11.791,2.154 -21.349,-6.439 -21.349,-19.193 v -280.967 c 0,-12.755 9.558,-24.841 21.349,-26.995 l 64.935,-11.862 92.51,-16.9 L 0,-304.062 v 23.093 z" /></g></g></g><path
       d="m 94.888443,42.21693 2.223384,5.5e-5 -2.8e-4,1.314031 -1.111482,-0.202436 -1.111482,0.200575 z"
       style="display:inline;fill:#5f6368;fill-opacity:1;fill-rule:nonzero;stroke:none;stroke-width:0.27791274"
       id="path180"
       inkscape:connector-curvature="0"
       inkscape:label="grey border patch"
       sodipodi:nodetypes="cccccc" /></g></svg>